HIERARCHY
ROOT Hips
{
	OFFSET 0.000000 0.000000 0.000000 
	CHANNELS 6 Xposition Yposition Zposition Yrotation Zrotation Xrotation 
	JOINT Lumbar
	{
		OFFSET 0.000000 0.000000 0.000000 
		CHANNELS 3 Zrotation Xrotation Yrotation
		JOINT Neck
		{
			OFFSET 0.000000 0.445665 0.000000 
			CHANNELS 3 Zrotation Xrotation Yrotation
			End Site
			{
				OFFSET 0.000000 0.227535 0.000000 
			}
		}
		JOINT RightShoulder
		{
			OFFSET 0.019635 0.377685 0.194865 
			CHANNELS 3 Zrotation Xrotation Yrotation
			JOINT RightElbow
			{
				OFFSET 0.000000 -0.243375 0.000000 
				CHANNELS 2 Zrotation Yrotation
				JOINT RightWrist
				{
					OFFSET 0.000000 -0.264825 0.000000 
					CHANNELS 2 Zrotation Xrotation
					End Site
					{
						OFFSET 0.006600 -0.176220 0.000990 
					}
				}
			}
		}
		JOINT LeftShoulder
		{
			OFFSET 0.019635 0.377685 -0.194865 
			CHANNELS 3 Zrotation Xrotation Yrotation
			JOINT LeftElbow
			{
				OFFSET 0.000000 -0.243375 0.000000 
				CHANNELS 2 Zrotation Yrotation
				JOINT LeftWrist
				{
					OFFSET 0.000000 -0.264825 0.000000 
					CHANNELS 2 Zrotation Xrotation
					End Site
					{
						OFFSET 0.006600 -0.176220 -0.000990 
					}
				}
			}
		}
	}
	JOINT RightHip
	{
		OFFSET 0.052140 -0.069960 0.075570 
		CHANNELS 3 Zrotation Xrotation Yrotation
		JOINT RightKnee
		{
			OFFSET 0.000000 -0.402270 0.000000 
			CHANNELS 1 Zrotation
			JOINT RightAnkle
			{
				OFFSET 0.000000 -0.404085 0.000000 
				CHANNELS 3 Zrotation Xrotation Yrotation
				End Site
				{
					OFFSET 0.204105 -0.089430 0.008415 
				}
			}
		}
	}
	JOINT LeftHip
	{
		OFFSET 0.052140 -0.069960 -0.075570 
		CHANNELS 3 Zrotation Xrotation Yrotation
		JOINT LeftKnee
		{
			OFFSET 0.000000 -0.402270 0.000000 
			CHANNELS 1 Zrotation
			JOINT LeftAnkle
			{
				OFFSET 0.000000 -0.404085 0.000000 
				CHANNELS 3 Zrotation Xrotation Yrotation
				End Site
				{
					OFFSET 0.204105 -0.089430 -0.008415 
				}
			}
		}
	}
}
MOTION
Frames: 16
Frame Time: 0.02
-0.00091 -5e-05 -0.00131 -173.48402 -27.32623 2.80459 43.67911 -1.10351 -5.3067 -14.79943 2.72258 -0.38424 -21.96072 -8.70671 -0.82953 26.59613 71.01027 2.79857 -3.04748 -18.75575 0.91003 29.78843 21.65802 -148.24918 27.91606 -8.82801 28.79204 -1.26723 -1.63734 -20.31104 -7.14921 -5.25447 -3.44344 33.9027 4.44934 -0.26751 -24.27433 -6.72386 2.44589 1.92379
-0.0008 -5e-05 -0.00102 -173.32052 -27.35736 2.76043 43.6004 -1.11379 -5.39725 -14.73426 2.7738 -0.38469 -21.62391 -8.15514 -3.5695 26.43424 76.61063 4.148 -2.16374 -18.97614 1.85147 27.674 22.90681 -146.58523 27.66127 -8.41851 28.84192 -1.27885 -1.91332 -20.3239 -7.13263 -5.24024 -3.43594 34.01136 4.4907 -0.20929 -24.30427 -6.72248 2.43817 1.91594
-0.0007 -4e-05 -0.00073 -173.15785 -27.38838 2.7162 43.52206 -1.12394 -5.48725 -14.66968 2.82519 -0.38513 -21.28869 -7.60594 -6.29828 26.27376 82.18652 5.49145 -1.28384 -19.1992 2.79344 25.56195 24.1596 -144.92064 27.40563 -8.00936 28.89156 -1.29038 -2.18878 -20.33668 -7.11606 -5.22598 -3.42842 34.11955 4.5321 -0.15121 -24.33412 -6.72109 2.43051 1.90814
-0.00059 -3e-05 -0.00044 -172.99488 -27.41945 2.67216 43.44363 -1.13417 -5.57749 -14.60473 2.87631 -0.38558 -20.953 -7.05625 -9.02914 26.11235 87.76802 6.83634 -0.40308 -19.41927 3.73242 23.45318 25.4056 -143.26059 27.15133 -7.60092 28.94132 -1.30197 -2.46395 -20.3495 -7.09952 -5.21179 -3.42093 34.22791 4.57334 -0.09316 -24.36398 -6.71971 2.42282 1.90031
-0.00048 -2e-05 -0.00016 -172.83102 -27.45055 2.62825 43.36477 -1.14456 -5.66838 -14.53915 2.92714 -0.38602 -20.61553 -6.50374 -11.77285 25.94967 93.37793 8.18813 0.48215 -19.63593 4.6699 21.3441 26.64525 -141.60415 26.89858 -7.19261 28.99121 -1.31364 -2.73953 -20.36241 -7.08301 -5.19762 -3.41348 34.33661 4.61453 -0.03501 -24.3939 -6.71834 2.41504 1.89243
-0.00038 -1e-05 0.00013 -172.6709 -27.48132 2.58334 43.28751 -1.15421 -5.75649 -14.47672 2.97968 -0.38647 -20.28508 -5.96143 -14.47046 25.79408 98.88276 9.51409 1.35095 -19.8727 5.62138 19.22624 27.92582 -139.92304 26.63691 -6.7818 29.04028 -1.32485 -3.01472 -20.37491 -7.06631 -5.18318 -3.40581 34.44363 4.65636 0.02294 -24.4236 -6.71693 2.40763 1.8848
-0.00026 -0 0.00042 -172.50323 -27.513 2.54056 43.2072 -1.16536 -5.85014 -14.40779 3.02876 -0.3869 -19.94081 -5.39973 -17.256 25.62315 104.58925 10.88988 2.2512 -20.06744 6.54287 17.1271 29.12122 -138.29125 26.39327 -6.3761 29.09128 -1.33706 -3.29037 -20.38822 -7.04998 -5.16934 -3.39859 34.55433 4.69676 0.08123 -24.45374 -6.71558 2.3995 1.87667
-0.00016 1e-05 0.00071 -172.34293 -27.54332 2.49567 43.12952 -1.17508 -5.93857 -14.34528 3.08095 -0.38736 -19.60942 -4.85493 -19.96387 25.46864 110.11654 12.22098 3.12364 -20.30331 7.49341 15.013 30.39775 -136.61797 26.13341 -5.96637 29.13986 -1.34821 -3.56564 -20.40078 -7.03335 -5.15489 -3.39094 34.66088 4.73865 0.13919 -24.48341 -6.7142 2.39202 1.869
-8e-05 3e-05 0.00099 -172.19002 -27.57407 2.44872 43.05576 -1.18324 -6.02107 -14.28897 3.13735 -0.38781 -19.29317 -4.33457 -22.56387 25.32528 115.39895 13.49265 3.95752 -20.58075 8.47491 12.86983 31.76512 -134.87638 25.85171 -5.54869 29.18803 -1.35858 -3.84042 -20.41245 -7.01619 -5.13988 -3.38284 34.76541 4.78174 0.19684 -24.51279 -6.71268 2.38538 1.86191
0.00013 1e-05 0.00129 -171.98972 -27.60863 2.41517 42.96156 -1.20091 -6.13905 -14.19203 3.17077 -0.38819 -18.88799 -3.68498 -25.74565 25.09098 122.01271 15.09182 4.99955 -20.59291 9.26471 10.86137 32.58498 -133.47478 25.68956 -5.16761 29.24622 -1.37499 -4.11795 -20.42934 -7.00161 -5.12867 -3.37752 34.89072 4.81606 0.25657 -24.5447 -6.71166 2.37404 1.85153
7e-05 6e-05 0.00156 -171.89248 -27.63112 2.3524 42.90914 -1.19819 -6.1813 -14.18395 3.25181 -0.38879 -18.67158 -3.30072 -27.72492 25.06554 125.8675 16.00935 5.61121 -21.18105 10.46719 8.5901 34.57487 -131.39053 25.27928 -4.7153 29.27841 -1.3777 -4.38966 -20.43515 -6.98185 -5.10906 -3.36622 34.96634 4.87006 0.31172 -24.5707 -6.70977 2.37255 1.84805
-0.00075 0.00031 0.0018 -172.05585 -27.65665 2.21703 42.98576 -1.14199 -6.02247 -14.39524 3.47143 -0.38946 -18.96739 -3.71383 -26.16003 25.48506 121.64767 14.95766 4.95443 -23.22006 12.75559 5.39407 39.68179 -127.10928 24.13037 -4.01327 29.28244 -1.35052 -4.6433 -20.41084 -6.94549 -5.0694 -3.33958 34.95628 4.9676 0.35437 -24.58523 -6.70404 2.39948 1.86439
-0.00183 0.00063 0.00201 -172.32696 -27.66559 2.05134 43.10312 -1.06508 -5.7874 -14.69949 3.73688 -0.39043 -19.4526 -4.38192 -23.42822 26.14168 114.73839 13.23743 3.87934 -25.85241 15.47269 1.95887 45.97611 -122.18994 22.73141 -3.24787 29.25519 -1.30843 -4.88983 -20.37539 -6.9044 -5.02087 -3.30682 34.88972 5.08593 0.39137 -24.59304 -6.69777 2.43637 1.88768
-0.00281 0.00092 0.00223 -172.56309 -27.65564 1.89406 43.19062 -0.99576 -5.58146 -14.9782 3.97691 -0.39161 -19.85651 -4.8863 -21.39599 26.76889 109.40466 11.89064 3.05578 -28.30958 18.01682 -1.21749 51.79465 -117.79 21.49935 -2.54933 29.21047 -1.26777 -5.14312 -20.34481 -6.867 -4.97426 -3.27609 34.81234 5.20271 0.4323 -24.60067 -6.69257 2.46743 1.90701
-0.00375 0.00119 0.00246 -172.73986 -27.74804 1.75766 43.32018 -0.93318 -5.39432 -15.18989 4.23865 -0.39136 -20.24574 -5.5874 -18.66623 27.051 102.62501 10.25837 1.98176 -30.40664 20.44637 -4.97497 57.3665 -112.47195 20.08956 -1.69778 29.28786 -1.24849 -5.38834 -20.31488 -6.82296 -4.93602 -3.24826 34.8774 5.28988 0.47186 -24.62148 -6.68356 2.50275 1.92903
-0.00481 0.00151 0.00268 -173.06649 -27.63484 1.57274 43.37921 -0.85277 -5.1554 -15.55907 4.46324 -0.39412 -20.70405 -5.9464 -17.08838 28.12669 98.15547 9.05002 1.31805 -33.34737 23.24525 -7.64552 63.708 -108.85013 18.93097 -1.14013 29.11803 -1.18262 -5.64013 -20.28116 -6.79176 -4.87889 -3.21324 34.64687 5.43901 0.50741 -24.61383 -6.68275 2.53315 1.94798
